<?xml version="1.0" encoding="UTF-8" standalone="no" ?>
<!DOCTYPE svg PUBLIC "-//W3C//DTD SVG 1.1//EN" "http://www.w3.org/Graphics/SVG/1.1/DTD/svg11.dtd">
<svg xmlns="http://www.w3.org/2000/svg" xmlns:xlink="http://www.w3.org/1999/xlink" version="1.1" width="4000" height="4000" viewBox="0 0 2000 2000" xml:space="preserve">
<desc>Created with Fabric.js 4.6.0</desc>
<defs>
</defs>
<g transform="matrix(-2.01 -2.01 2.01 -2.01 2940.8 934.22)" style="" id="kuywbk_D01LIL6Jgts-WW"  >
		<text xml:space="preserve" font-family="Lato" font-size="20" font-style="normal" font-weight="normal" line-height="0.7" style="stroke: none; stroke-width: 1; stroke-dasharray: none; stroke-linecap: butt; stroke-dashoffset: 0; stroke-linejoin: miter; stroke-miterlimit: 4; fill: rgb(172,0,3); fill-rule: nonzero; opacity: 1; white-space: pre;" ><tspan x="-36.23" y="-1.63" >CREDIT</tspan><tspan x="-36.23" y="14.19" >LOOPS</tspan></text>
</g>
<g transform="matrix(0.92 0 0 1 930.43 934.22)" id="tK4_5qdjYEc1yJZ5oI58r"  >
<path style="stroke: rgb(198,231,101); stroke-width: 0; stroke-dasharray: none; stroke-linecap: butt; stroke-dashoffset: 0; stroke-linejoin: miter; stroke-miterlimit: 4; fill: rgb(172,0,3); fill-rule: nonzero; opacity: 1;" vector-effect="non-scaling-stroke"  transform=" translate(0, 0)" d="M -615.90909 -375.09136 C -615.90909 -438.96019 -588.3785 -500.21312 -539.37372 -545.37521 C -490.36895000000004 -590.53729 -423.90421000000003 -615.90909 -354.60099 -615.90909 L 354.60099 -615.90909 L 354.60099 -615.90909 C 423.90421000000003 -615.90909 490.36894000000007 -590.5373 539.37372 -545.37521 C 588.37849 -500.21313000000004 615.9090900000001 -438.96019 615.9090900000001 -375.09136 L 615.9090900000001 375.09136 L 615.9090900000001 375.09136 C 615.9090900000001 508.09132 498.9174700000001 615.90908 354.6010000000001 615.90909 L -354.60097999999994 615.90909 L -354.60097999999994 615.90909 C -498.91745999999995 615.90909 -615.9090799999999 508.09132 -615.9090799999999 375.09137 z" stroke-linecap="round" />
</g>
<g transform="matrix(1 0 0 1 1000 934.22)" id="UFogtZQsEJahxzA-MAIoy"  >
<g style="" vector-effect="non-scaling-stroke"   >
		<g transform="matrix(0.66 0 0 0.66 298.02 2.77)" id="5E-8lo91krsW7qkazTzde"  >
<path style="stroke: rgb(67,233,151); stroke-width: 0; stroke-dasharray: none; stroke-linecap: butt; stroke-dashoffset: 0; stroke-linejoin: miter; stroke-miterlimit: 4; fill: rgb(172,0,3); fill-rule: nonzero; opacity: 1;" vector-effect="non-scaling-stroke"  transform=" translate(0, 0)" d="M 0 -68.49999 C 37.812 -68.49999 68.49999 -37.811989999999994 68.49999 0 C 68.49999 37.812 37.811989999999994 68.49999 0 68.49999 C -37.812 68.49999 -68.49999 37.811989999999994 -68.49999 0 C -68.49999 -37.812 -37.811989999999994 -68.49999 0 -68.49999 z" stroke-linecap="round" />
</g>
		<g transform="matrix(1 0 0 1 -25.57 0)" id="goYmyL9enDJB0qH-OW7VF"  >
<path style="stroke: rgb(203,24,227); stroke-width: 0; stroke-dasharray: none; stroke-linecap: butt; stroke-dashoffset: 0; stroke-linejoin: miter; stroke-miterlimit: 4; fill: rgb(255,255,255); fill-rule: nonzero; opacity: 1;" vector-effect="non-scaling-stroke"  transform=" translate(-456, -456)" d="M 456 0 C 707.712 0 912 204.288 912 456 C 912 707.712 707.712 912 456 912 C 204.288 912 0 707.712 0 456 C 0 204.288 204.288 0 456 0 z" stroke-linecap="round" />
</g>
		<g transform="matrix(1.04 0 0 2.16 286.2 1.62)" id="0n_uv9SD1oBf-wa3w7v6F"  >
<path style="stroke: rgb(69,213,235); stroke-width: 0; stroke-dasharray: none; stroke-linecap: butt; stroke-dashoffset: 0; stroke-linejoin: miter; stroke-miterlimit: 4; fill: rgb(172,0,3); fill-rule: nonzero; opacity: 1;" vector-effect="non-scaling-stroke"  transform=" translate(0, 0)" d="M 0 -200 C 110.4 -200 200 -110.4 200 0 C 200 110.4 110.4 200 0 200 C -110.4 200 -200 110.4 -200 0 C -200 -110.4 -110.4 -200 0 -200 z" stroke-linecap="round" />
</g>
		<g transform="matrix(1.97 1.14 -1.38 2.39 -22.89 1.62)" id="k1UnX3nAdybDyqV-sjCx-"  >
<path style="stroke: rgb(162,60,158); stroke-width: 0; stroke-dasharray: none; stroke-linecap: butt; stroke-dashoffset: 0; stroke-linejoin: miter; stroke-miterlimit: 4; fill: rgb(172,0,3); fill-rule: nonzero; opacity: 1;" vector-effect="non-scaling-stroke"  transform=" translate(0, 0)" d="M -10 -171.8945 L 10 -171.8945 L 10 171.89449000000002 L -10 171.89449000000002 z" stroke-linecap="round" />
</g>
		<g transform="matrix(2.28 0 0 2.28 -22.89 0)" id="UUHeJEu6kg7irF1BZY02y"  >
<path style="stroke: rgb(249,13,92); stroke-width: 0; stroke-dasharray: none; stroke-linecap: butt; stroke-dashoffset: 0; stroke-linejoin: miter; stroke-miterlimit: 4; fill: rgb(172,0,3); fill-rule: nonzero; opacity: 1;" vector-effect="non-scaling-stroke"  transform=" translate(0, 0)" d="M 0 -111 C 61.272 -111 111 -61.272 111 0 C 111 61.272 61.272 111 0 111 C -61.272 111 -111 61.272 -111 0 C -111 -61.272 -61.272 -111 0 -111 z" stroke-linecap="round" />
</g>
		<g transform="matrix(0 2.28 -2.46 0 -71.34 0)" id="yig9GVIV789CBopLarnKP"  >
<path style="stroke: rgb(162,60,158); stroke-width: 0; stroke-dasharray: none; stroke-linecap: butt; stroke-dashoffset: 0; stroke-linejoin: miter; stroke-miterlimit: 4; fill: rgb(172,0,3); fill-rule: nonzero; opacity: 1;" vector-effect="non-scaling-stroke"  transform=" translate(0, 0)" d="M -10 -171.8945 L 10 -171.8945 L 10 171.89449000000002 L -10 171.89449000000002 z" stroke-linecap="round" />
</g>
		<g transform="matrix(-1.97 1.14 -1.4 -2.42 -25.57 -3.02)" id="Hs35B1COzbrau1T8fe-wE"  >
<path style="stroke: rgb(162,60,158); stroke-width: 0; stroke-dasharray: none; stroke-linecap: butt; stroke-dashoffset: 0; stroke-linejoin: miter; stroke-miterlimit: 4; fill: rgb(172,0,3); fill-rule: nonzero; opacity: 1;" vector-effect="non-scaling-stroke"  transform=" translate(0, 0)" d="M -10 -171.8945 L 10 -171.8945 L 10 171.89449000000002 L -10 171.89449000000002 z" stroke-linecap="round" />
</g>
		<g transform="matrix(0.66 0 0 0.66 -20.5 1.9)" id="38NODcyCEEnZa6MW6SFnt"  >
<path style="stroke: rgb(204,248,117); stroke-width: 0; stroke-dasharray: none; stroke-linecap: butt; stroke-dashoffset: 0; stroke-linejoin: miter; stroke-miterlimit: 4; fill: rgb(255,255,255); fill-rule: nonzero; opacity: 1;" vector-effect="non-scaling-stroke"  transform=" translate(0, 0)" d="M 0 -137 C 75.624 -137 137 -75.624 137 0 C 137 75.624 75.624 137 0 137 C -75.624 137 -137 75.624 -137 0 C -137 -75.624 -75.624 -137 0 -137 z" stroke-linecap="round" />
</g>
		<g transform="matrix(2.28 0 0 2.28 96.44 4.13)" id="ZS6nczdqF76PgAJ9KdajR"  >
<path style="stroke: rgb(119,21,4); stroke-width: 0; stroke-dasharray: none; stroke-linecap: butt; stroke-dashoffset: 0; stroke-linejoin: miter; stroke-miterlimit: 4; fill: rgb(119,8,14); fill-rule: nonzero; opacity: 1;" vector-effect="non-scaling-stroke"  transform=" translate(0, 0)" d="M 0 -0.00005 C 0.00003 -0.00005 0.00005 -0.00003 0.00005 0 C 0.00005 0.00003 0.00003 0.00005 0 0.00005 C -0.00003 0.00005 -0.00005 0.00003 -0.00005 0 C -0.00005 -0.00003 -0.00003 -0.00005 0 -0.00005 z" stroke-linecap="round" />
</g>
		<g transform="matrix(0.66 0 0 0.66 161.51 1.9)" id="MDlkHMZrXBhBrVGJZin8C"  >
<path style="stroke: rgb(67,233,151); stroke-width: 0; stroke-dasharray: none; stroke-linecap: butt; stroke-dashoffset: 0; stroke-linejoin: miter; stroke-miterlimit: 4; fill: rgb(255,255,255); fill-rule: nonzero; opacity: 1;" vector-effect="non-scaling-stroke"  transform=" translate(0, 0)" d="M 0 -68.50001 C 37.812 -68.50001 68.50001 -37.81201 68.50001 0 C 68.50001 37.812 37.81201 68.50001 0 68.50001 C -37.812 68.50001 -68.50001 37.81201 -68.50001 0 C -68.50001 -37.812 -37.81201 -68.50001 0 -68.50001 z" stroke-linecap="round" />
</g>
		<g transform="matrix(0.66 0 0 0.66 298.02 2.84)" id="Yve8uqZlt8IxYSG0ctNOo"  >
<path style="stroke: rgb(67,233,151); stroke-width: 0; stroke-dasharray: none; stroke-linecap: butt; stroke-dashoffset: 0; stroke-linejoin: miter; stroke-miterlimit: 4; fill: rgb(255,255,255); fill-rule: nonzero; opacity: 1;" vector-effect="non-scaling-stroke"  transform=" translate(0, 0)" d="M 0 -68.50001 C 37.812 -68.50001 68.50001 -37.81201 68.50001 0 C 68.50001 37.812 37.81201 68.50001 0 68.50001 C -37.812 68.50001 -68.50001 37.81201 -68.50001 0 C -68.50001 -37.812 -37.81201 -68.50001 0 -68.50001 z" stroke-linecap="round" />
</g>
</g>
</g>
</svg>